{
  "accessors": [
    {
      "bufferView": 0,
      "componentType": 5125,
      "count": 31857,
      "type": "SCALAR"
    },
    {
      "bufferView": 1,
      "componentType": 5126,
      "count": 6977,
      "max": [
        13.03125,
        54.0704650878906,
        218.614166259766
      ],
      "min": [
        -60.9907608032227,
        -22.8179378509521,
        -6.79869842529297
      ],
      "type": "VEC3"
    },
    {
      "bufferView": 2,
      "componentType": 5126,
      "count": 6977,
      "type": "VEC3"
    },
    {
      "bufferView": 3,
      "componentType": 5126,
      "count": 6977,
      "type": "VEC2"
    }
  ],
  "asset": {
    "generator": "Substance Painter 6.2.2",
    "version": "2.0"
  },
  "bufferViews": [
    {
      "buffer": 0,
      "byteLength": 127428,
      "target": 34963
    },
    {
      "buffer": 0,
      "byteLength": 83724,
      "byteOffset": 127428,
      "target": 34962
    },
    {
      "buffer": 0,
      "byteLength": 83724,
      "byteOffset": 211152,
      "target": 34962
    },
    {
      "buffer": 0,
      "byteLength": 55816,
      "byteOffset": 294876,
      "target": 34962
    }
  ],
  "buffers": [
    {
      "byteLength": 350692,
      "uri": "segmented.bin"
    }
  ],
  "images": [
    {
      "uri": "DefaultMaterial_baseColor.png"
    },
    {
      "uri": "DefaultMaterial_occlusionRoughnessMetallic.png"
    },
    {
      "uri": "DefaultMaterial_normal.png"
    }
  ],
  "materials": [
    {
      "alphaMode": "OPAQUE",
      "name": "DefaultMaterial",
      "normalTexture": {
        "index": 2
      },
      "occlusionTexture": {
        "index": 1
      },
      "pbrMetallicRoughness": {
        "baseColorTexture": {
          "index": 0
        },
        "metallicRoughnessTexture": {
          "index": 1
        }
      }
    }
  ],
  "meshes": [
    {
      "name": "seg_01",
      "primitives": [
        {
          "attributes": {
            "NORMAL": 2,
            "POSITION": 1,
            "TEXCOORD_0": 3
          },
          "indices": 0,
          "material": 0,
          "mode": 4
        }
      ]
    }
  ],
  "nodes": [
    {
      "children": [
        1
      ],
      "name": "RootNode"
    },
    {
      "children": [
        2
      ],
      "name": "seg_01",
      "rotation": [
        -0.70710676908493,
        0.0,
        0.0,
        0.70710676908493
      ],
      "scale": [
        1.52244997024536,
        1.52244997024536,
        1.52244997024536
      ],
      "translation": [
        24.1847400665283,
        7.50915336608887,
        37.826717376709
      ]
    },
    {
      "mesh": 0,
      "name": "seg_01"
    }
  ],
  "samplers": [
    {
      "magFilter": 9729,
      "minFilter": 9985,
      "wrapS": 10497,
      "wrapT": 10497
    }
  ],
  "scene": 0,
  "scenes": [
    {
      "name": "Scene",
      "nodes": [
        0
      ]
    }
  ],
  "textures": [
    {
      "sampler": 0,
      "source": 0
    },
    {
      "sampler": 0,
      "source": 1
    },
    {
      "sampler": 0,
      "source": 2
    }
  ]
}